<svg xmlns="http://www.w3.org/2000/svg" viewBox="0 13.649999618530273 514.7000122070312 31.850000381469727" data-asc="0.898" width="514.7000122070312" height="31.850000381469727"><defs/><g fill="#c537d7"><g transform="translate(0, 0)"><path d="M22.70 44.90L28.20 13.65L37.15 13.65L42.25 24.75Q42.40 25.10 42.40 25.75Q42.40 26.10 42.38 26.47Q42.35 26.85 42.30 27.15L42.70 27.15L45.10 13.65L54.60 13.65L49.10 44.90L40.15 44.90L35.05 33.80Q35 33.60 34.92 33.32Q34.85 33.05 34.85 32.70Q34.85 32.40 34.88 32.05Q34.90 31.70 34.95 31.40L34.55 31.40L32.20 44.90L22.70 44.90M26.25 15.90L5.10 13.65L26.65 13.65L26.25 15.90M25.45 20.70L4.25 18.45L25.80 18.45L25.45 20.70M24.60 25.50L3.40 23.25L25 23.25L24.60 25.50M23.75 30.30L2.55 28.05L24.15 28.05L23.75 30.30M22.90 35.10L1.70 32.85L23.30 32.85L22.90 35.10M22.05 39.90L0.85 37.65L22.45 37.65L22.05 39.90M21.20 44.75L0 42.50L21.60 42.50L21.20 44.75ZM64.65 44.90L75.75 18.45L88.15 18.45L90.10 44.90L81.35 44.90L81.15 40.85L74.85 40.85L73.30 44.90L64.65 44.90M73.20 20.60L52.80 18.45L74.10 18.45L73.20 20.60M71.20 25.45L50.75 23.25L72.10 23.25L71.20 25.45M77.50 33.70L81.15 33.70L81.15 26.10L80.45 26.10L77.50 33.70M69.15 30.25L48.70 28.05L70.10 28.05L69.15 30.25M67.15 35.05L46.65 32.85L68.05 32.85L67.15 35.05M65.10 39.85L44.60 37.65L66.05 37.65L65.10 39.85M63.05 44.70L42.55 42.50L64 42.50L63.05 44.70ZM103.15 44.90L107.75 18.45L120.45 18.45Q123.25 18.45 124.83 19.30Q126.40 20.15 127.08 21.65Q127.75 23.15 127.75 25.05Q127.75 26.55 127.33 28.70Q126.90 30.85 125.78 32.88Q124.65 34.90 122.50 36.10L125.35 44.90L116 44.90L114.10 37.20L112.90 37.20L111.55 44.90L103.15 44.90M105.75 20.70L84.55 18.45L106.10 18.45L105.75 20.70M104.90 25.50L83.70 23.25L105.30 23.25L104.90 25.50M114.10 30.35L115.70 30.35Q116.70 30.35 117.43 30.07Q118.15 29.80 118.30 28.85L118.60 27.10Q118.60 27.00 118.63 26.92Q118.65 26.85 118.65 26.80Q118.65 26.10 117.93 25.92Q117.20 25.75 116 25.75L114.90 25.75L114.10 30.35M104.05 30.30L82.85 28.05L104.45 28.05L104.05 30.30M103.20 35.10L82 32.85L103.60 32.85L103.20 35.10M102.35 39.90L81.15 37.65L102.75 37.65L102.35 39.90M101.50 44.75L80.30 42.50L101.90 42.50L101.50 44.75ZM139.20 44.90L143.80 18.45L161.40 18.45L159.05 25.95L150.90 25.95L150.30 29.35L157.80 29.35L156.95 34.15L149.50 34.15L148.90 37.55L158.15 37.55L156.85 44.90L139.20 44.90M141.80 20.70L120.60 18.45L142.15 18.45L141.80 20.70M140.95 25.50L119.75 23.25L141.35 23.25L140.95 25.50M140.10 30.30L118.90 28.05L140.50 28.05L140.10 30.30M139.25 35.10L118.05 32.85L139.65 32.85L139.25 35.10M138.40 39.90L117.20 37.65L138.80 37.65L138.40 39.90M137.55 44.75L116.35 42.50L137.95 42.50L137.55 44.75ZM182.05 45.50Q179.70 45.50 177.28 45.25Q174.85 45 172.50 44.35L174.95 36.95Q178.85 38.05 182.45 38.05Q183.35 38.05 184.18 38.02Q185 38 185.90 37.90L186.15 36.30L183 35.95Q178.85 35.50 177.20 34Q175.55 32.50 175.55 29.90Q175.55 29.35 175.63 28.70Q175.70 28.05 175.80 27.40Q176.45 23.80 177.78 21.75Q179.10 19.70 181.53 18.82Q183.95 17.95 187.90 17.95Q192.65 17.95 196.85 19.00L194.45 26.30Q192.70 25.90 191.25 25.70Q189.80 25.50 188.10 25.50Q187.15 25.50 186.55 25.52Q185.95 25.55 185.10 25.65L184.85 27.10L187.35 27.40Q191.75 27.90 193.58 29.65Q195.40 31.40 195.40 34.05Q195.40 34.50 195.35 35Q195.30 35.50 195.20 36Q194.60 39.45 193.30 41.40Q192 43.35 190.20 44.23Q188.40 45.10 186.30 45.30Q184.20 45.50 182.05 45.50M176.70 20.55L157.20 18.45L178.75 18.45Q178.15 18.90 177.63 19.40Q177.10 19.90 176.70 20.55M174.65 25.50L153.75 23.25L175.30 23.25Q175.10 23.75 174.95 24.32Q174.80 24.90 174.65 25.50M174.05 30.30L152.85 28.05L174.15 28.05Q174.10 28.50 174.08 28.97Q174.05 29.45 174.05 29.90L174.05 30.30M175.95 35.10L154.80 32.85L174.50 32.85Q174.95 34.15 175.95 35.10M172.40 39.85L151.55 37.65L173.10 37.65L172.40 39.85M170.80 44.75L149.90 42.50L171.50 42.50L170.80 44.75ZM207.90 44.90L212.50 18.45L220.95 18.45L219.30 27.60L224.95 27.60L226.55 18.45L235.00 18.45L230.35 44.90L221.95 44.90L223.50 35.75L217.90 35.75L216.30 44.90L207.90 44.90M210.50 20.70L189.30 18.45L210.85 18.45L210.50 20.70M209.65 25.50L188.45 23.25L210.05 23.25L209.65 25.50M208.80 30.30L187.60 28.05L209.20 28.05L208.80 30.30M207.95 35.10L186.75 32.85L208.35 32.85L207.95 35.10M207.10 39.90L185.90 37.65L207.50 37.65L207.10 39.90M206.25 44.75L185.05 42.50L206.65 42.50L206.25 44.75ZM256.50 44.90L262 13.65L271.50 13.65L269.25 26.40L269.65 26.40Q269.80 25.80 270.05 25.10Q270.30 24.40 270.55 24.00L276.85 13.65L287.10 13.65L277.30 29L281.85 44.90L271.60 44.90L268.85 33.70Q268.70 33.15 268.70 32.25Q268.70 32 268.73 31.75Q268.75 31.50 268.75 31.30L268.35 31.30L266 44.90L256.50 44.90M260.05 15.90L238.90 13.65L260.45 13.65L260.05 15.90M259.25 20.70L238.05 18.45L259.60 18.45L259.25 20.70M258.40 25.50L237.20 23.25L258.80 23.25L258.40 25.50M257.55 30.30L236.35 28.05L257.95 28.05L257.55 30.30M256.70 35.10L235.50 32.85L257.10 32.85L256.70 35.10M255.85 39.90L234.65 37.65L256.25 37.65L255.85 39.90M255 44.75L233.80 42.50L255.40 42.50L255 44.75ZM291.95 44.90L303.05 18.45L315.45 18.45L317.40 44.90L308.65 44.90L308.45 40.85L302.15 40.85L300.60 44.90L291.95 44.90M300.50 20.60L280.10 18.45L301.40 18.45L300.50 20.60M298.50 25.45L278.05 23.25L299.40 23.25L298.50 25.45M304.80 33.70L308.45 33.70L308.45 26.10L307.75 26.10L304.80 33.70M296.45 30.25L276 28.05L297.40 28.05L296.45 30.25M294.45 35.05L273.95 32.85L295.35 32.85L294.45 35.05M292.40 39.85L271.90 37.65L293.35 37.65L292.40 39.85M290.35 44.70L269.85 42.50L291.30 42.50L290.35 44.70ZM330.45 44.90L336.50 18.45L347.35 18.45L348.10 30.85L348.30 30.85L353.35 18.45L364.20 18.45L361 44.90L352.40 44.90L353.75 34.15L353.50 34.15L349 44.90L342.40 44.90L341.65 34.15L341.40 34.15L339 44.90L330.45 44.90M334.30 20.70L313.35 18.45L334.85 18.45L334.30 20.70M333.20 25.50L312.20 23.25L333.70 23.25L333.20 25.50M332.05 30.30L311.05 28.05L332.60 28.05L332.05 30.30M331.05 35.10L309.90 32.85L331.55 32.85L331.05 35.10M329.90 39.90L308.75 37.65L330.45 37.65L329.90 39.90M328.80 44.75L307.60 42.50L329.30 42.50L328.80 44.75ZM375.50 44.90L380.10 18.45L388.90 18.45L384.25 44.90L375.50 44.90M378.10 20.70L356.90 18.45L378.45 18.45L378.10 20.70M377.25 25.50L356.05 23.25L377.65 23.25L377.25 25.50M376.40 30.30L355.20 28.05L376.80 28.05L376.40 30.30M375.55 35.10L354.35 32.85L375.95 32.85L375.55 35.10M374.70 39.90L353.50 37.65L375.10 37.65L374.70 39.90M373.85 44.75L352.65 42.50L374.25 42.50L373.85 44.75ZM399.95 44.90L404.55 18.45L411.35 18.45L416.55 28.30L416.85 28.30L418.55 18.45L426.90 18.45L422.25 44.90L415.45 44.90L410.30 35L410.10 35L408.35 44.90L399.95 44.90M402.55 20.70L381.35 18.45L402.90 18.45L402.55 20.70M401.70 25.50L380.50 23.25L402.10 23.25L401.70 25.50M400.85 30.30L379.65 28.05L401.25 28.05L400.85 30.30M400 35.10L378.80 32.85L400.40 32.85L400 35.10M399.15 39.90L377.95 37.65L399.55 37.65L399.15 39.90M398.30 44.75L377.10 42.50L398.70 42.50L398.30 44.75ZM438.40 44.90L443 18.45L451.80 18.45L447.15 44.90L438.40 44.90M441 20.70L419.80 18.45L441.35 18.45L441 20.70M440.15 25.50L418.95 23.25L440.55 23.25L440.15 25.50M439.30 30.30L418.10 28.05L439.70 28.05L439.30 30.30M438.45 35.10L417.25 32.85L438.85 32.85L438.45 35.10M437.60 39.90L416.40 37.65L438 37.65L437.60 39.90M436.75 44.75L415.55 42.50L437.15 42.50L436.75 44.75ZM462.85 44.90L467.45 18.45L474.25 18.45L479.45 28.30L479.75 28.30L481.45 18.45L489.80 18.45L485.15 44.90L478.35 44.90L473.20 35L473 35L471.25 44.90L462.85 44.90M465.45 20.70L444.25 18.45L465.80 18.45L465.45 20.70M464.60 25.50L443.40 23.25L465 23.25L464.60 25.50M463.75 30.30L442.55 28.05L464.15 28.05L463.75 30.30M462.90 35.10L441.70 32.85L463.30 32.85L462.90 35.10M462.05 39.90L440.85 37.65L462.45 37.65L462.05 39.90M461.20 44.75L440 42.50L461.60 42.50L461.20 44.75ZM501.30 44.90L505.90 18.45L514.70 18.45L510.05 44.90L501.30 44.90M503.90 20.70L482.70 18.45L504.25 18.45L503.90 20.70M503.05 25.50L481.85 23.25L503.45 23.25L503.05 25.50M502.20 30.30L481.00 28.05L502.60 28.05L502.20 30.30M501.35 35.10L480.15 32.85L501.75 32.85L501.35 35.10M500.50 39.90L479.30 37.65L500.90 37.65L500.50 39.90M499.65 44.75L478.45 42.50L500.05 42.50L499.65 44.75Z"/></g></g></svg>