<svg xmlns="http://www.w3.org/2000/svg" viewBox="0 9.949999809265137 395 40.75" data-asc="1" width="395" height="40.75"><defs/><g fill="#08e7a4"><g transform="translate(0, 0)"><path d="M29 50.30Q26.40 50.30 25.28 49.60Q24.15 48.90 23.20 47.50L9.20 26.25L9.20 44.30Q9.20 45.70 10.18 46.27Q11.15 46.85 12.85 46.85Q12.85 48.60 11.70 50L1.30 50Q0.20 48.65 0.20 46.85Q1.90 46.85 2.78 46.27Q3.65 45.70 3.65 44.30L3.65 20.80Q3.65 19.40 2.67 18.82Q1.70 18.25 0 18.25Q0 16.35 1.10 15.10L8.05 15.10Q9.50 15.10 10.97 16.23Q12.45 17.35 13.70 19.35L25.05 37.30L25.05 20.80Q25.05 19.40 24.13 18.82Q23.20 18.25 21.50 18.25Q21.50 17.40 21.80 16.55Q22.10 15.70 22.65 15.10L33.30 15.10Q34.45 16.40 34.45 18.25Q32.80 18.25 31.90 18.82Q31.00 19.40 31.00 20.80L31.00 50.30L29 50.30ZM44.40 50.35Q40.65 50.35 38.33 48.27Q36.00 46.20 36.00 42.95Q36.00 39.70 38.13 37.70Q40.25 35.70 44.70 35.70Q46.15 35.70 47.75 35.98Q49.35 36.25 50.35 36.80L50.35 30.15Q50.35 28.05 49.28 27.22Q48.20 26.40 46.65 26.40Q45.00 26.40 43.95 27.20Q44.95 27.55 45.40 28.27Q45.85 29 45.85 29.85Q45.85 31.50 44.68 32.47Q43.50 33.45 41.80 33.45Q39.90 33.45 38.75 32.33Q37.60 31.20 37.60 29.50Q37.60 27.80 38.75 26.27Q39.90 24.75 42.33 23.75Q44.75 22.75 48.60 22.75Q58.65 22.75 58.65 30.70L58.65 43.95Q58.65 46.35 60.95 46.85L60.95 48.45Q60.30 49.40 58.75 49.88Q57.20 50.35 55.75 50.35Q52.35 50.35 50.95 48Q49.95 48.90 48.30 49.63Q46.65 50.35 44.40 50.35M47.65 46.30Q48.35 46.30 49.10 46.08Q49.85 45.85 50.35 45.50L50.35 40.65Q49.85 40.30 49.08 40.05Q48.30 39.80 47.55 39.80Q46.25 39.80 45.30 40.63Q44.35 41.45 44.35 43.20Q44.35 44.55 45.25 45.42Q46.15 46.30 47.65 46.30ZM64.25 50Q63.70 49.45 63.40 48.80Q63.10 48.15 63.10 47.30Q64.55 47.30 65.18 46.67Q65.80 46.05 65.80 44.55L65.80 30.10Q65.80 28.80 65.10 28.22Q64.40 27.65 62.50 27.65L62.50 25.40Q63.70 24.70 65.35 24.17Q67 23.65 68.60 23.32Q70.20 23 71.10 23Q72.25 23 72.78 23.80Q73.30 24.60 73.30 27.25Q73.85 26.20 74.93 25.17Q76 24.15 77.35 23.50Q78.70 22.85 80.15 22.85Q82.50 22.85 83.50 24.05Q84.50 25.25 84.50 27.15Q84.50 29.30 83.40 30.65Q82.30 32 80.35 32Q78.65 32 77.65 31.02Q76.65 30.05 76.65 28.80Q76.65 28 76.80 27.55Q76 27.75 75.25 28.07Q74.50 28.40 73.75 29.10L73.75 44.10Q73.75 45.25 74.10 45.95Q74.45 46.65 75.48 46.98Q76.50 47.30 78.55 47.30Q78.55 48.15 78.35 48.80Q78.15 49.45 77.60 50L64.25 50ZM97.95 50.45Q92.35 50.45 89.03 46.90Q85.70 43.35 85.70 37Q85.70 32.65 87.35 29.47Q89 26.30 91.83 24.60Q94.65 22.90 98.25 22.90Q102.75 22.90 105.47 25.52Q108.20 28.15 108.20 32.90Q108.20 34.80 107.58 36.23Q106.95 37.65 105 37.65L94.20 37.65Q94.35 41.60 96.03 43.25Q97.70 44.90 100.40 44.90Q102.10 44.90 103.55 44.38Q105 43.85 106.25 42.90Q106.70 43.30 106.97 44.13Q107.25 44.95 107.25 45.50Q107.25 46.30 106.13 47.48Q105 48.65 102.92 49.55Q100.85 50.45 97.95 50.45M94.20 33.85L99.25 33.85Q100.10 33.85 100.33 33.20Q100.55 32.55 100.55 31.60Q100.55 28.40 99.78 27.38Q99 26.35 97.95 26.35Q97.10 26.35 96.25 27Q95.40 27.65 94.85 29.27Q94.30 30.90 94.20 33.85ZM121.05 50.50Q119.25 50.50 117.42 50.10Q115.60 49.70 114.08 48.95Q112.55 48.20 111.60 47.08Q110.65 45.95 110.65 44.50Q110.65 42.75 111.65 41.67Q112.65 40.60 114.20 40.60Q115.60 40.60 116.58 41.50Q117.55 42.40 117.55 43.85Q117.55 44.50 117.35 44.98Q117.15 45.45 116.75 46Q117.20 46.45 118.35 46.65Q119.50 46.85 120.60 46.85Q122.35 46.85 123.30 46.20Q124.25 45.55 124.25 44.60Q124.25 43.10 122.65 42.02Q121.05 40.95 119 39.85Q117.15 38.85 115.33 37.73Q113.50 36.60 112.28 34.90Q111.05 33.20 111.05 30.60Q111.05 27.30 113.80 25.15Q116.55 23 121.60 23Q125.10 23 127.20 23.88Q129.30 24.75 130.25 26.07Q131.20 27.40 131.20 28.85Q131.20 30.40 130.22 31.32Q129.25 32.25 127.85 32.25Q126.60 32.25 125.65 31.47Q124.70 30.70 124.70 29.45Q124.70 28.85 124.90 28.15Q125.10 27.45 125.45 27Q124.90 26.55 124.17 26.38Q123.45 26.20 122.45 26.20Q120.80 26.20 119.92 26.97Q119.05 27.75 119.05 28.85Q119.05 30.55 120.67 31.65Q122.30 32.75 124.30 33.80Q126.15 34.75 127.92 35.85Q129.70 36.95 130.90 38.60Q132.10 40.25 132.10 42.85Q132.10 45.65 130.50 47.33Q128.90 49 126.38 49.75Q123.85 50.50 121.05 50.50ZM156.90 50.30Q154.45 50.30 153.15 49.55Q151.85 48.80 151.85 47.15L151.85 31.05Q151.85 29.45 150.95 28.57Q150.05 27.70 148.60 27.70Q147.65 27.70 146.57 28.32Q145.50 28.95 144.95 30L144.95 44.60Q144.95 46.05 145.57 46.67Q146.20 47.30 147.70 47.30Q147.70 48.85 146.55 50L135.50 50Q134.35 48.85 134.35 47.30Q135.85 47.30 136.47 46.67Q137.10 46.05 137.10 44.60L137.10 17.50Q137.10 16.35 136.45 15.70Q135.80 15.05 133.75 15.05L133.75 13Q135 12.35 136.68 11.80Q138.35 11.25 140.03 10.92Q141.70 10.60 142.80 10.60Q143.95 10.60 144.45 11.13Q144.95 11.65 144.95 12.90L144.95 22.75L144.85 26.75Q146.15 25.10 148.20 23.95Q150.25 22.80 152.85 22.80Q159.95 22.80 159.95 30.20L159.95 44.20Q159.95 46.75 162.35 47.20L162.40 48.65Q160.60 50.30 156.90 50.30ZM201 50.70Q198.90 50.70 197.45 50Q196 49.30 195.05 48.17Q194.10 47.05 193.43 45.77Q192.75 44.50 192.20 43.40Q191.70 42.35 190.95 40.92Q190.20 39.50 189.32 38.08Q188.45 36.65 187.50 35.58Q186.55 34.50 185.60 34.10L185.60 44.30Q185.60 45.70 186.28 46.25Q186.95 46.80 188.60 46.80Q188.60 47.70 188.30 48.55Q188 49.40 187.50 50L175.25 50Q174.15 48.75 174.15 46.80Q175.80 46.80 176.47 46.25Q177.15 45.70 177.15 44.30L177.15 20.80Q177.15 19.40 176.47 18.82Q175.80 18.25 174.15 18.25Q174.15 16.35 175.25 15.10L187.50 15.10Q188 15.70 188.30 16.55Q188.60 17.40 188.60 18.25Q186.95 18.25 186.28 18.82Q185.60 19.40 185.60 20.80L185.60 30.70Q185.95 30.70 186.45 30.70Q186.95 30.70 187.45 30.80L194.50 21.45Q194.85 21.05 195 20.55Q195.15 20.05 195.15 19.65Q195.15 19 194.20 18.63Q193.25 18.25 192.25 18.25Q192.25 16.50 193.40 15.10L205.05 15.10Q205.55 15.75 205.85 16.57Q206.15 17.40 206.15 18.25Q204 18.25 202.85 19.10Q201.70 19.95 201.15 20.65L191.70 31.85Q194.15 32.95 195.72 34.52Q197.30 36.10 198.75 38.35Q200.25 40.60 201.30 42.38Q202.35 44.15 203.45 45.20Q204.55 46.25 206.05 46.45L206.05 48.45Q205.25 49.50 204.13 50.10Q203 50.70 201 50.70ZM215.60 50.35Q211.85 50.35 209.53 48.27Q207.20 46.20 207.20 42.95Q207.20 39.70 209.32 37.70Q211.45 35.70 215.90 35.70Q217.35 35.70 218.95 35.98Q220.55 36.25 221.55 36.80L221.55 30.15Q221.55 28.05 220.47 27.22Q219.40 26.40 217.85 26.40Q216.20 26.40 215.15 27.20Q216.15 27.55 216.60 28.27Q217.05 29 217.05 29.85Q217.05 31.50 215.88 32.47Q214.70 33.45 213 33.45Q211.10 33.45 209.95 32.33Q208.80 31.20 208.80 29.50Q208.80 27.80 209.95 26.27Q211.10 24.75 213.53 23.75Q215.95 22.75 219.80 22.75Q229.85 22.75 229.85 30.70L229.85 43.95Q229.85 46.35 232.15 46.85L232.15 48.45Q231.50 49.40 229.95 49.88Q228.40 50.35 226.95 50.35Q223.55 50.35 222.15 48Q221.15 48.90 219.50 49.63Q217.85 50.35 215.60 50.35M218.85 46.30Q219.55 46.30 220.30 46.08Q221.05 45.85 221.55 45.50L221.55 40.65Q221.05 40.30 220.28 40.05Q219.50 39.80 218.75 39.80Q217.45 39.80 216.50 40.63Q215.55 41.45 215.55 43.20Q215.55 44.55 216.45 45.42Q217.35 46.30 218.85 46.30ZM271.15 50.30Q269.30 50.30 267.97 49.77Q266.65 49.25 266.65 47.70L266.65 31.05Q266.65 29.45 265.77 28.57Q264.90 27.70 263.45 27.70Q262.65 27.70 261.82 28Q261 28.30 260.35 28.90Q260.40 29.10 260.40 29.27Q260.40 29.45 260.40 29.65L260.40 44.60Q260.40 46.05 261 46.67Q261.60 47.30 262.90 47.30Q262.90 48.10 262.57 48.77Q262.25 49.45 261.70 50L251.05 50Q250.55 49.45 250.22 48.77Q249.90 48.10 249.90 47.30Q251.20 47.30 251.72 46.67Q252.25 46.05 252.25 44.60L252.25 31.05Q252.25 29.45 251.32 28.57Q250.40 27.70 249.10 27.70Q248.15 27.70 247.15 28.15Q246.15 28.60 245.45 29.45L245.45 44.60Q245.45 46.05 245.97 46.67Q246.50 47.30 247.75 47.30Q247.75 48.85 246.55 50L235.70 50Q235.15 49.45 234.82 48.77Q234.50 48.10 234.50 47.30Q236 47.30 236.65 46.67Q237.30 46.05 237.30 44.60L237.30 29.95Q237.30 28.65 236.57 28.05Q235.85 27.45 233.95 27.45L233.95 25.25Q235.10 24.55 236.88 24Q238.65 23.45 240.32 23.13Q242 22.80 242.90 22.80Q243.90 22.80 244.57 23.42Q245.25 24.05 245.45 26Q246.75 24.55 248.72 23.67Q250.70 22.80 253.20 22.80Q258.20 22.80 259.70 26.15Q261 24.55 263.07 23.67Q265.15 22.80 267.70 22.80Q271.30 22.80 273.07 24.55Q274.85 26.30 274.85 29.65L274.85 44.60Q274.85 45.75 275.50 46.35Q276.15 46.95 277.30 47.20L277.30 48.65Q276.40 49.45 274.95 49.88Q273.50 50.30 271.15 50.30ZM286.20 19.35Q284.05 19.35 282.77 18.07Q281.50 16.80 281.50 14.65Q281.50 12.55 282.82 11.25Q284.15 9.95 286.30 9.95Q288.50 9.95 289.77 11.25Q291.05 12.55 291.05 14.65Q291.05 16.80 289.73 18.07Q288.40 19.35 286.20 19.35M280.60 50Q280.05 49.45 279.75 48.80Q279.45 48.15 279.45 47.30Q280.90 47.30 281.60 46.67Q282.30 46.05 282.30 44.55L282.30 30.05Q282.30 28.75 281.68 28.10Q281.05 27.45 279 27.45L279 25.25Q279.75 24.80 281.30 24.22Q282.85 23.65 284.68 23.25Q286.50 22.85 287.95 22.85Q289.10 22.85 289.60 23.38Q290.10 23.90 290.10 25.15L290.10 44.60Q290.10 46.10 290.85 46.70Q291.60 47.30 293.05 47.30Q293.05 48.15 292.75 48.80Q292.45 49.45 291.90 50L280.60 50ZM296.60 50Q296.05 49.45 295.73 48.80Q295.40 48.15 295.40 47.35Q296.90 47.35 297.55 46.70Q298.20 46.05 298.20 44.60L298.20 30Q298.20 28.70 297.48 28.10Q296.75 27.50 294.85 27.50L294.85 25.25Q296 24.60 297.78 24.05Q299.55 23.50 301.23 23.17Q302.90 22.85 303.80 22.85Q304.85 22.85 305.53 23.50Q306.20 24.15 306.30 26.30Q307.55 24.75 309.48 23.80Q311.40 22.85 313.95 22.85Q317.45 22.85 319.23 24.63Q321 26.40 321 30.65L321 44.30Q321 46.75 323.40 47.20L323.45 48.65Q322.95 49.15 321.85 49.52Q320.75 49.90 319.48 50.10Q318.20 50.30 317.10 50.30Q314.95 50.30 313.93 49.50Q312.90 48.70 312.90 46.95L312.90 31.35Q312.90 29.30 312 28.50Q311.10 27.70 309.80 27.70Q307.75 27.70 306.35 29.35L306.35 44.60Q306.35 46.05 306.98 46.70Q307.60 47.35 309.10 47.35Q309.10 48.85 307.95 50L296.60 50ZM338.10 50.45Q332.50 50.45 329.18 46.90Q325.85 43.35 325.85 37Q325.85 32.65 327.50 29.47Q329.15 26.30 331.98 24.60Q334.80 22.90 338.40 22.90Q342.90 22.90 345.63 25.52Q348.35 28.15 348.35 32.90Q348.35 34.80 347.73 36.23Q347.10 37.65 345.15 37.65L334.35 37.65Q334.50 41.60 336.18 43.25Q337.85 44.90 340.55 44.90Q342.25 44.90 343.70 44.38Q345.15 43.85 346.40 42.90Q346.85 43.30 347.13 44.13Q347.40 44.95 347.40 45.50Q347.40 46.30 346.28 47.48Q345.15 48.65 343.08 49.55Q341.00 50.45 338.10 50.45M334.35 33.85L339.40 33.85Q340.25 33.85 340.48 33.20Q340.70 32.55 340.70 31.60Q340.70 28.40 339.93 27.38Q339.15 26.35 338.10 26.35Q337.25 26.35 336.40 27Q335.55 27.65 335.00 29.27Q334.45 30.90 334.35 33.85ZM352.40 50Q351.85 49.45 351.53 48.80Q351.20 48.15 351.20 47.35Q352.70 47.35 353.35 46.70Q354.00 46.05 354.00 44.60L354.00 30Q354.00 28.70 353.28 28.10Q352.55 27.50 350.65 27.50L350.65 25.25Q351.80 24.60 353.58 24.05Q355.35 23.50 357.03 23.17Q358.70 22.85 359.60 22.85Q360.65 22.85 361.33 23.50Q362.00 24.15 362.10 26.30Q363.35 24.75 365.28 23.80Q367.20 22.85 369.75 22.85Q373.25 22.85 375.03 24.63Q376.80 26.40 376.80 30.65L376.80 44.30Q376.80 46.75 379.20 47.20L379.25 48.65Q378.75 49.15 377.65 49.52Q376.55 49.90 375.28 50.10Q374.00 50.30 372.90 50.30Q370.75 50.30 369.73 49.50Q368.70 48.70 368.70 46.95L368.70 31.35Q368.70 29.30 367.80 28.50Q366.90 27.70 365.60 27.70Q363.55 27.70 362.15 29.35L362.15 44.60Q362.15 46.05 362.78 46.70Q363.40 47.35 364.90 47.35Q364.90 48.85 363.75 50L352.40 50ZM388.15 19.35Q386.00 19.35 384.73 18.07Q383.45 16.80 383.45 14.65Q383.45 12.55 384.78 11.25Q386.10 9.95 388.25 9.95Q390.45 9.95 391.73 11.25Q393.00 12.55 393.00 14.65Q393.00 16.80 391.68 18.07Q390.35 19.35 388.15 19.35M382.55 50Q382.00 49.45 381.70 48.80Q381.40 48.15 381.40 47.30Q382.85 47.30 383.55 46.67Q384.25 46.05 384.25 44.55L384.25 30.05Q384.25 28.75 383.63 28.10Q383.00 27.45 380.95 27.45L380.95 25.25Q381.70 24.80 383.25 24.22Q384.80 23.65 386.63 23.25Q388.45 22.85 389.90 22.85Q391.05 22.85 391.55 23.38Q392.05 23.90 392.05 25.15L392.05 44.60Q392.05 46.10 392.80 46.70Q393.55 47.30 395.00 47.30Q395.00 48.15 394.70 48.80Q394.40 49.45 393.85 50L382.55 50Z"/></g></g></svg>