<svg xmlns="http://www.w3.org/2000/svg" viewBox="0 12.649999618530273 293.70001220703125 39.55000686645508" data-asc="0.9" width="293.70001220703125" height="39.55000686645508"><defs/><g fill="#08e7a4"><g transform="translate(0, 0)"><path d="M40.05 52.20Q39.45 52.20 39.10 52Q37.05 50.95 37.05 47.60Q37.05 43.20 40.10 34.50Q41.40 30.95 42.68 27.35Q43.95 23.75 45.25 20.15Q45.30 19.95 45.33 19.80Q45.35 19.65 45.35 19.50Q45.35 18.45 44.30 18.45Q43.15 18.45 41 19.55Q36.25 21.90 30.70 27.80Q23.85 35.05 18.55 45.10Q18.65 45.35 19.15 45.58Q19.65 45.80 19.40 46Q19.40 46.65 17.30 46.65Q15.45 46.65 15.45 46.10Q15.45 44.65 16.55 41.58Q17.65 38.50 20 33.80L24.75 24.30Q26.20 21.50 26.82 19.45Q27.45 17.40 27.45 16.20Q27.45 13.55 23.05 13.55Q19.20 13.55 12.20 16.85Q8.25 18.75 5.35 21.95Q2.15 25.35 2.15 28.25Q2.15 30.10 3.63 31.32Q5.10 32.55 7.35 32.55Q8.20 32.55 9 32.40L9.70 32.30Q6.65 33.45 5.45 33.45Q3.95 33.45 2.60 32.95Q0 32 0 29Q0 26.70 1.40 24.35Q2.60 22.25 5.90 19.60Q9.35 16.75 13.40 14.95Q18.45 12.65 23.20 12.65Q27.95 12.65 29.75 15.60Q29.85 15.90 29.85 16.20Q29.85 17.35 28.75 20.27Q27.65 23.20 25.35 27.95L19.05 40.95Q19.15 41.10 24.15 33.45Q26.75 29.50 33.60 23.60Q40.20 17.90 42.75 17.20Q43.40 17 44.25 17Q46.05 17 47.33 18.02Q48.60 19.05 48.60 20.15Q48.60 20.55 48.40 20.80Q44.65 26.50 42.10 34.90Q40.95 38.70 40.38 41.88Q39.80 45.05 39.80 47.55Q39.80 51.35 41.35 51.15Q41.85 50.95 42.60 50.73Q43.35 50.50 44.40 50.15Q44.55 50.10 44.80 50.10Q45.55 50.10 43.50 51.15Q41.50 52.20 40.05 52.20ZM56.50 45.55Q55.50 45.55 54.67 44.90Q53.85 44.25 53.70 43.65Q53.55 42.95 55.55 38.65L54.40 40.30Q53.65 41.40 52.90 42.25Q52.15 43.10 51.50 43.75Q49.60 45.55 48.30 45.25Q45.30 44.55 45.30 41.85Q45.30 39.70 47.35 36.35Q48 35.35 49 34.35Q50 33.35 51.30 32.40Q54.65 29.95 57.75 29.95Q59.65 29.95 61.35 30.95Q61.90 31.35 61.90 31.80Q61.90 32.15 61.70 32.15Q61.65 32.15 61.60 32.10Q60.55 30.95 58.80 30.95Q56.75 30.95 54.35 32.50Q51.95 34.05 50.05 36.65Q47.35 40.40 47.35 42.75Q47.35 44.10 48.30 44.45Q49.50 44.95 53.40 40Q55 38.05 56.08 36.50Q57.15 34.95 57.80 33.85Q58.10 33.30 58.90 33.30Q60.40 33.30 60.40 34.20Q60.40 34.35 60.35 34.40Q56 41.30 56 43.75Q56 44.35 56.35 44.40Q57.40 44.70 59.85 42.85Q62.80 40.65 65.40 37Q65.95 36.25 66.40 36.25Q66.55 36.25 66.55 36.35Q66.55 36.60 66.10 37.30Q65.05 38.95 63.78 40.40Q62.50 41.85 60.95 43.10Q58.75 44.95 57.35 45.40Q57 45.55 56.50 45.55ZM61.90 45.60Q61.20 45.60 61.20 45.15Q61.20 45.10 61.30 44.80Q63.65 40.30 66.85 31.95Q67.20 31.05 68.05 30.38Q68.90 29.70 69.50 29.70Q70.15 29.70 70.05 30.40Q69.55 31.45 68.85 33.10Q68.15 34.75 67.20 36.95Q68.60 35.10 71.35 32.80Q72.75 31.65 73.78 30.90Q74.80 30.15 75.50 29.80Q76.20 29.45 77.05 29.45Q78.05 29.45 78.75 29.95Q79.45 30.45 79.45 31.10Q79.45 31.50 79.08 31.98Q78.70 32.45 78.30 32.45Q78.10 32.45 77.47 32.02Q76.85 31.60 76.15 31.60Q75.40 31.60 74.40 32.05Q68.05 34.90 63.45 44.90Q63.15 45.60 61.90 45.60ZM79.55 45.40Q78.10 45.40 77 44.70Q75.55 43.70 75.55 41.80Q75.55 39.75 77.30 36.80Q79.65 32.95 84.20 30.05Q85.35 29.30 86.50 29.30Q88 29.30 88.65 30.25Q89.05 30.80 89.05 31.50Q89.05 33.60 85.65 36.10Q84.65 36.80 83.53 37.38Q82.40 37.95 81.10 38.20L78.95 38.65Q77.75 40.80 77.75 42.25Q77.75 44.25 80.10 44.25Q81.95 44.25 84.60 42.70Q88.15 40.65 90.70 37Q91.10 36.40 91.45 36.40Q91.60 36.40 91.60 36.60Q91.60 36.85 91.25 37.35Q86.40 44.65 80.30 45.35Q80.10 45.40 79.92 45.40Q79.75 45.40 79.55 45.40M79.55 37.80Q80.95 37.80 83.15 36.55Q86.25 34.80 87.50 32.05Q87.85 31.35 87.85 30.90Q87.85 30.45 87.50 30.45Q86.85 30.45 84.85 32.05Q83.40 33.30 82.03 34.73Q80.65 36.15 79.40 37.75Q79.35 37.80 79.55 37.80ZM89.60 47.05Q89.40 47.05 89.40 46.90Q89.40 46.25 92.80 44.50Q93.65 44.10 94.35 43.67Q95.05 43.25 95.55 42.90Q98.60 40.65 98.60 39Q98.60 37.75 96.15 37.75Q90.45 37.65 90.45 35.25Q90.45 34.20 91.35 33.25Q92.40 32.05 94.85 30.95Q97.50 29.75 99.70 29.75Q101.65 29.75 102.65 30.70Q103.10 31.15 103.10 31.80Q103.10 32.50 102.65 33.05Q102.20 33.60 101.65 33.60Q100.65 33.60 100.55 32.25Q100.55 31.30 100.25 31.15Q99.95 31 98.65 31Q97.00 31 94.95 32.10Q92.50 33.35 92.65 35.10Q92.75 36.10 96.45 36.10Q101.50 36.10 101.50 38.55Q101.50 41.20 97.15 43.85Q94.40 45.55 90.45 46.85Q89.90 47.05 89.60 47.05ZM115.95 45.50Q114.85 45.60 113.85 44.92Q112.85 44.25 112.85 43.40Q112.85 41.85 115.80 37.45Q119.05 32.55 119.05 31.80Q119.05 31.35 118.55 31.35Q117.25 31.35 113.55 35.20Q111.35 37.40 109.43 39.92Q107.50 42.45 105.80 45.25Q105.70 45.35 105.25 45.35Q103.05 45.35 103.25 44.75Q104.10 42.45 105.40 39.60Q106.70 36.75 108.50 33.25Q114.45 21.75 116.60 20.10Q117.20 19.65 118.25 19.65Q120.00 19.65 120.00 20.35Q120.00 20.50 119.70 20.75Q113.15 25.60 108.10 39Q108.15 38.95 108.63 38.52Q109.10 38.10 110.00 37.25Q110.95 36.40 111.63 35.67Q112.30 34.95 112.80 34.40Q115.25 31.65 118.20 30.30Q118.90 30 119.80 30Q121.85 30 121.85 31.50Q121.85 32.45 120.90 33.75Q115.50 41.30 115.50 43.90Q115.50 44.45 115.85 44.60Q116.65 44.95 119.80 42.95Q123.50 40.55 126.10 37Q126.65 36.25 127.10 36.25Q127.25 36.25 127.25 36.35Q127.25 36.60 126.80 37.30Q124.60 40.75 120.70 43.40Q117.20 45.70 115.95 45.50ZM146.05 46.75Q144.20 46.75 144.35 46.15Q144.55 45.35 145.20 43.92Q145.85 42.50 147 40.45Q148 38.60 149.07 36.88Q150.15 35.15 151.25 33.55Q154.45 28.90 156.25 26.25Q158.05 23.60 158.45 22.95Q162.40 16.90 162.40 14.95Q162.40 14.30 161.95 14.10Q160.60 13.50 158.85 13.50Q154.95 13.50 147.15 16.85Q144.70 17.90 142.60 19.25Q140.50 20.60 138.70 22.20Q134.75 25.85 134.75 28.90Q134.75 30.15 135.43 31.17Q136.10 32.20 138.40 32.45Q140.30 32.70 140.10 33.05Q139.60 34 137.50 34Q135.70 34 133.95 32.80Q132.55 31.85 132.55 29.75Q132.55 26.85 134.65 24.15Q136.35 22 139.80 19.65Q143.80 16.85 148.05 15.45Q156.30 12.65 159.80 12.65Q163.95 12.65 165 15.30Q165.45 16.45 159 26Q154.85 32.15 152.03 36.73Q149.20 41.30 147.65 44.35L147.65 44.45Q147.65 44.70 148 45.10Q148.35 45.50 148.35 45.75Q148.25 46.75 146.05 46.75M176.70 51.85Q176.05 51.85 175.35 51.45Q172.50 49.75 165.40 41.55Q157.90 32.75 157.90 29.85Q157.90 29.30 158.10 29.10Q158.65 28.45 160.40 27.22Q162.15 26 165.10 24.20Q167.55 22.65 170 21.22Q172.45 19.80 174.90 18.50Q181.75 14.80 186.05 14.65L186.25 14.65Q187.40 14.65 187.40 15.30Q187.40 15.80 186.60 15.85Q177.15 17.30 160.60 29.20Q160.45 29.25 160.45 29.55Q160.45 30.80 163.20 34.80Q164.60 36.80 166.13 38.77Q167.65 40.75 169.35 42.65Q175.45 49.40 178.20 49.40Q178.80 49.40 179.40 49.05Q180 48.70 180.10 48.70L180.30 48.70Q180.75 48.70 180.75 49Q180.75 49.75 179.25 50.60Q178.60 51 177.93 51.42Q177.25 51.85 176.70 51.85ZM185.10 45.55Q184.10 45.55 183.28 44.90Q182.45 44.25 182.30 43.65Q182.15 42.95 184.15 38.65L183 40.30Q182.25 41.40 181.50 42.25Q180.75 43.10 180.10 43.75Q178.20 45.55 176.90 45.25Q173.90 44.55 173.90 41.85Q173.90 39.70 175.95 36.35Q176.60 35.35 177.60 34.35Q178.60 33.35 179.90 32.40Q183.25 29.95 186.35 29.95Q188.25 29.95 189.95 30.95Q190.50 31.35 190.50 31.80Q190.50 32.15 190.30 32.15Q190.25 32.15 190.20 32.10Q189.15 30.95 187.40 30.95Q185.35 30.95 182.95 32.50Q180.55 34.05 178.65 36.65Q175.95 40.40 175.95 42.75Q175.95 44.10 176.90 44.45Q178.10 44.95 182 40Q183.60 38.05 184.67 36.50Q185.75 34.95 186.40 33.85Q186.70 33.30 187.50 33.30Q189 33.30 189 34.20Q189 34.35 188.95 34.40Q184.60 41.30 184.60 43.75Q184.60 44.35 184.95 44.40Q186 44.70 188.45 42.85Q191.40 40.65 194 37Q194.55 36.25 195 36.25Q195.15 36.25 195.15 36.35Q195.15 36.60 194.70 37.30Q193.65 38.95 192.38 40.40Q191.10 41.85 189.55 43.10Q187.35 44.95 185.95 45.40Q185.60 45.55 185.10 45.55ZM210.15 45.50Q209.05 45.60 208.05 44.92Q207.05 44.25 207.05 43.40Q207.05 41.85 210 37.45Q213.25 32.60 213.25 31.85Q213.25 31.40 212.80 31.35Q211.35 31.45 208.90 33.65Q205.15 37.10 201.35 44.05Q201.20 44.30 200.20 44.30Q199.10 44.30 199.10 43.40Q199.10 41.85 202.05 37.45Q205.30 32.60 205.30 31.85Q205.30 31.40 204.85 31.35Q203.40 31.45 200.35 34.25Q195.95 38.35 192.25 45.15Q192.20 45.25 192.03 45.30Q191.85 45.35 191.40 45.35Q189.50 45.35 189.70 44.75Q190.25 43.30 191.63 40.40Q193 37.50 195.20 33.10Q196.70 30.15 198.25 30.15Q198.75 30.15 198.90 30.40Q199 30.55 196.80 34.70Q195.75 36.70 195.15 37.88Q194.55 39.05 194.30 39.40Q195.15 38.55 196.32 37.30Q197.50 36.05 199.05 34.40Q201.50 31.65 204.45 30.30Q205.05 30.05 205.70 30.05Q207.85 30.05 207.85 31.90Q207.85 32.95 207 34.40Q209.30 31.70 212.40 30.30Q213.10 30 214 30Q216.05 30 216.05 31.50Q216.05 32.45 215.10 33.75Q209.70 41.30 209.70 43.90Q209.70 44.45 210.05 44.60Q210.80 44.90 212.90 43.70Q215.55 42.15 217.80 39.35Q218.10 39 218.40 39Q218.60 39 218.60 39.15Q218.60 39.35 218.30 39.75Q215.80 42.95 213.35 44.45Q211.35 45.70 210.15 45.50ZM228.15 27.45Q227.35 27.55 226.42 27.25Q225.50 26.95 225.50 26.50Q225.50 26.20 225.70 25.88Q225.90 25.55 226.20 25.20Q227.05 24.15 227.20 23.88Q227.35 23.60 227.75 23.60Q228.90 23.60 229.55 24.70Q229.60 24.75 229.60 24.90Q229.60 25.35 229.10 26.20Q228.45 27.40 228.15 27.45M220.60 45.50Q217.70 44.85 217.70 43.20Q217.70 42.40 219.65 37.55Q220.20 36.60 221.13 34.77Q222.05 32.95 223.45 30.30Q223.70 29.90 224.55 29.90Q225.30 29.90 226.02 30.13Q226.75 30.35 226.60 30.55Q220 39.90 220 43.50Q220 44.55 220.70 44.55Q222.05 44.55 224.95 42.65Q228.40 40.30 230.75 37Q231.25 36.20 231.75 36.20Q231.90 36.20 231.90 36.35Q231.90 36.60 231.45 37.30Q229.25 40.75 225.35 43.40Q221.85 45.80 220.60 45.50ZM240.35 45.50Q239.25 45.60 238.25 44.92Q237.25 44.25 237.25 43.40Q237.25 41.85 240.20 37.45Q243.45 32.60 243.45 31.85Q243.45 31.40 243 31.35Q241.55 31.45 238.50 34.25Q234.15 38.30 230.35 45.25Q230.25 45.35 229.80 45.35Q227.65 45.35 227.85 44.75Q228.40 43.30 229.78 40.40Q231.15 37.50 233.35 33.10Q234.85 30.15 236.40 30.15Q236.90 30.15 237.05 30.40Q237.15 30.55 234.95 34.70Q233.90 36.70 233.30 37.88Q232.70 39.05 232.45 39.40Q233.30 38.55 234.47 37.30Q235.65 36.05 237.20 34.40Q239.65 31.65 242.60 30.30Q243.30 30 244.20 30Q246.25 30 246.25 31.50Q246.25 32.45 245.30 33.75Q239.90 41.30 239.90 43.90Q239.90 44.45 240.25 44.60Q241.05 44.95 244.20 42.95Q247.90 40.55 250.50 37Q251.05 36.25 251.50 36.25Q251.65 36.25 251.65 36.35Q251.65 36.60 251.20 37.30Q249 40.75 245.10 43.40Q241.60 45.70 240.35 45.50ZM251.35 45.40Q249.90 45.40 248.80 44.70Q247.35 43.70 247.35 41.80Q247.35 39.75 249.10 36.80Q251.45 32.95 256 30.05Q257.15 29.30 258.30 29.30Q259.80 29.30 260.45 30.25Q260.85 30.80 260.85 31.50Q260.85 33.60 257.45 36.10Q256.45 36.80 255.32 37.38Q254.20 37.95 252.90 38.20L250.75 38.65Q249.55 40.80 249.55 42.25Q249.55 44.25 251.90 44.25Q253.75 44.25 256.40 42.70Q259.95 40.65 262.50 37Q262.90 36.40 263.25 36.40Q263.40 36.40 263.40 36.60Q263.40 36.85 263.05 37.35Q258.20 44.65 252.10 45.35Q251.90 45.40 251.72 45.40Q251.55 45.40 251.35 45.40M251.35 37.80Q252.75 37.80 254.95 36.55Q258.05 34.80 259.30 32.05Q259.65 31.35 259.65 30.90Q259.65 30.45 259.30 30.45Q258.65 30.45 256.65 32.05Q255.20 33.30 253.82 34.73Q252.45 36.15 251.20 37.75Q251.15 37.80 251.35 37.80ZM271.85 45.50Q270.75 45.60 269.75 44.92Q268.75 44.25 268.75 43.40Q268.75 41.85 271.70 37.45Q274.95 32.60 274.95 31.85Q274.95 31.40 274.50 31.35Q273.05 31.45 270 34.25Q265.65 38.30 261.85 45.25Q261.75 45.35 261.30 45.35Q259.15 45.35 259.35 44.75Q259.90 43.30 261.28 40.40Q262.65 37.50 264.85 33.10Q266.35 30.15 267.90 30.15Q268.40 30.15 268.55 30.40Q268.65 30.55 266.45 34.70Q265.40 36.70 264.80 37.88Q264.20 39.05 263.95 39.40Q264.80 38.55 265.98 37.30Q267.15 36.05 268.70 34.40Q271.15 31.65 274.10 30.30Q274.80 30 275.70 30Q277.75 30 277.75 31.50Q277.75 32.45 276.80 33.75Q271.40 41.30 271.40 43.90Q271.40 44.45 271.75 44.60Q272.55 44.95 275.70 42.95Q279.40 40.55 282 37Q282.55 36.25 283 36.25Q283.15 36.25 283.15 36.35Q283.15 36.60 282.70 37.30Q280.50 40.75 276.60 43.40Q273.10 45.70 271.85 45.50ZM289.95 27.45Q289.15 27.55 288.23 27.25Q287.30 26.95 287.30 26.50Q287.30 26.20 287.50 25.88Q287.70 25.55 288 25.20Q288.85 24.15 289 23.88Q289.15 23.60 289.55 23.60Q290.70 23.60 291.35 24.70Q291.40 24.75 291.40 24.90Q291.40 25.35 290.90 26.20Q290.25 27.40 289.95 27.45M282.40 45.50Q279.50 44.85 279.50 43.20Q279.50 42.40 281.45 37.55Q282 36.60 282.93 34.77Q283.85 32.95 285.25 30.30Q285.50 29.90 286.35 29.90Q287.10 29.90 287.82 30.13Q288.55 30.35 288.40 30.55Q281.80 39.90 281.80 43.50Q281.80 44.55 282.50 44.55Q283.85 44.55 286.75 42.65Q290.20 40.30 292.55 37Q293.05 36.20 293.55 36.20Q293.70 36.20 293.70 36.35Q293.70 36.60 293.25 37.30Q291.05 40.75 287.15 43.40Q283.65 45.80 282.40 45.50Z"/></g></g></svg>